<svg width="235" height="55" viewBox="0 0 235 55" fill="none" xmlns="http://www.w3.org/2000/svg">
<path d="M7.50717 17.3285L8.09938 16.7355L16.0275 8.80793C16.2578 8.57519 16.5116 8.41321 16.7869 8.30133C17.0626 8.18971 17.3588 8.13155 17.657 8.13155C17.9553 8.13155 18.2513 8.18971 18.5255 8.30133C18.7991 8.41321 19.053 8.57519 19.2854 8.80793L28.7597 18.2819L33.498 13.5438L24.0231 4.06984C23.1519 3.19768 22.1305 2.53281 21.0443 2.09116C19.9588 1.65142 18.8061 1.43155 17.657 1.43155C16.5095 1.43155 15.3575 1.64988 14.2702 2.09116C13.1842 2.53091 12.1605 3.19651 11.2893 4.06984L2.76898 12.5881C1.89493 13.4601 1.22996 14.4848 0.789584 15.5714C0.350473 16.6574 0.1306 17.8089 0.1306 18.9586C0.1306 20.1078 0.350473 21.2575 0.789584 22.3453C1.23214 23.4314 1.89493 24.4523 2.76898 25.3247L22.3635 44.9193C23.2353 45.7911 24.2567 46.4561 25.3429 46.8963C26.4285 47.3377 27.5804 47.5553 28.7296 47.5553C29.8777 47.5553 31.0285 47.3377 32.1169 46.8963C33.203 46.4582 34.2261 45.7911 35.0978 44.9193L37.5608 42.4563L42.2991 37.7182L43.6176 36.3989C44.4911 35.5272 45.1567 34.504 45.5964 33.4179C46.0367 32.3302 46.256 31.1784 46.256 30.0309C46.256 28.8798 46.0367 27.73 45.5953 26.6438C45.1556 25.5577 44.4899 24.5362 43.6176 23.6645L38.2374 18.2819L33.4991 23.0202L38.88 28.4022C39.1113 28.6335 39.2748 28.8869 39.3866 29.1627C39.4984 29.4363 39.5543 29.7329 39.5543 30.0309C39.5543 30.3288 39.4984 30.6254 39.3866 30.9012C39.2748 31.1765 39.1113 31.4298 38.88 31.6612L37.5608 32.9798L32.8225 37.7182L30.3618 40.181C30.1293 40.4101 29.8755 40.5744 29.5997 40.6881C29.3245 40.7979 29.0278 40.8556 28.7296 40.8556C28.4319 40.8556 28.1358 40.7979 27.861 40.6881C27.5858 40.5763 27.3321 40.4101 27.1018 40.181L7.50717 20.5864C7.27579 20.3537 7.11127 20.1004 6.99948 19.8265C6.88823 19.5507 6.83224 19.2544 6.83224 18.9586C6.83224 18.6581 6.88823 18.3623 6.99948 18.0882C7.11127 17.8127 7.27579 17.5588 7.50717 17.3285Z" fill="white"/>
<path d="M63.5516 38.6739L55.0334 47.1922C54.8005 47.4232 54.5472 47.5869 54.272 47.6987C53.9983 47.8103 53.7 47.8685 53.4018 47.8662C53.1052 47.8685 52.8085 47.8103 52.5349 47.6987C52.2597 47.5869 52.0058 47.4232 51.7728 47.1922L42.2991 37.7182L37.5608 42.4563L47.0351 51.9318C47.9069 52.8035 48.93 53.4691 50.0139 53.9089C51.1001 54.3502 52.2515 54.5685 53.4018 54.5685C54.551 54.5685 55.7024 54.3502 56.7885 53.9089C57.8764 53.4691 58.8977 52.8035 59.7718 51.9318L68.2909 43.412C69.1639 42.5399 69.8289 41.5153 70.2681 40.4288C70.7105 39.3426 70.9282 38.1912 70.9282 37.0415C70.9282 35.8922 70.7105 34.7428 70.2681 33.6565C69.8289 32.5686 69.1639 31.5477 68.2909 30.6754L48.6964 11.0808C47.8253 10.2091 46.8043 9.54391 45.7181 9.10371C44.6314 8.66233 43.4801 8.44473 42.3308 8.44473C41.1812 8.44473 40.0297 8.66233 38.9441 9.10262C37.8574 9.54182 36.8342 10.2091 35.9609 11.0808L33.498 13.5438L28.7597 18.2819L27.4406 19.6012H27.4428C26.5683 20.4729 25.9032 21.496 25.4636 22.5838C25.0221 23.67 24.8044 24.8216 24.8044 25.9711C24.8044 27.1203 25.0221 28.27 25.4636 29.3562C25.9032 30.4445 26.5683 31.4638 27.4406 32.3355L32.8225 37.7182L37.5608 32.9798L32.1789 27.5995C31.9475 27.3665 31.7851 27.1132 31.6733 26.8374C31.5615 26.5638 31.5044 26.2671 31.5044 25.9711C31.5044 25.6712 31.5615 25.3748 31.6733 25.101C31.7851 24.8252 31.9475 24.5718 32.1789 24.3407L32.771 23.7468L33.4991 23.0202L38.2374 18.2819L40.6981 15.8208C40.9317 15.5877 41.185 15.4239 41.4607 15.3119C41.7343 15.2022 42.0326 15.1445 42.3308 15.1445C42.627 15.1445 42.9229 15.2022 43.1972 15.3119C43.4729 15.4239 43.7268 15.5877 43.9571 15.8208L63.5538 35.4136C63.7847 35.6464 63.9476 35.8997 64.0587 36.1752C64.1705 36.4494 64.2282 36.7456 64.2282 37.0415C64.2282 37.3419 64.1705 37.6377 64.0587 37.9139C63.9476 38.1874 63.7847 38.4412 63.5516 38.6739Z" fill="#AAD4C8"/>
<path d="M94.4588 39.3281H92.5923C92.5582 39.0866 92.4886 38.8722 92.3835 38.6847C92.2784 38.4943 92.1435 38.3324 91.9787 38.1989C91.8139 38.0653 91.6236 37.9631 91.4077 37.892C91.1946 37.821 90.9631 37.7855 90.7131 37.7855C90.2614 37.7855 89.8679 37.8977 89.5327 38.1222C89.1974 38.3437 88.9375 38.6676 88.7528 39.0938C88.5682 39.517 88.4759 40.0312 88.4759 40.6364C88.4759 41.2585 88.5682 41.7812 88.7528 42.2045C88.9403 42.6278 89.2017 42.9474 89.5369 43.1634C89.8722 43.3793 90.2599 43.4872 90.7003 43.4872C90.9474 43.4872 91.1761 43.4545 91.3864 43.3892C91.5994 43.3239 91.7884 43.2287 91.9531 43.1037C92.1179 42.9759 92.2543 42.821 92.3622 42.6392C92.473 42.4574 92.5497 42.25 92.5923 42.017L94.4588 42.0256C94.4105 42.4261 94.2898 42.8125 94.0966 43.1847C93.9063 43.554 93.6491 43.8849 93.3253 44.1776C93.0043 44.4673 92.6207 44.6974 92.1747 44.8679C91.7315 45.0355 91.2301 45.1193 90.6705 45.1193C89.892 45.1193 89.196 44.9432 88.5824 44.5909C87.9716 44.2386 87.4886 43.7287 87.1335 43.0611C86.7812 42.3935 86.6051 41.5852 86.6051 40.6364C86.6051 39.6847 86.7841 38.875 87.142 38.2074C87.5 37.5398 87.9858 37.0312 88.5994 36.6818C89.2131 36.3295 89.9034 36.1534 90.6705 36.1534C91.1761 36.1534 91.6449 36.2244 92.0767 36.3665C92.5114 36.5085 92.8963 36.7159 93.2315 36.9886C93.5668 37.2585 93.8395 37.5895 94.0497 37.9815C94.2628 38.3736 94.3991 38.8224 94.4588 39.3281ZM103.802 40.6364C103.802 41.5881 103.621 42.3977 103.261 43.0653C102.903 43.733 102.414 44.2429 101.795 44.5952C101.178 44.9446 100.485 45.1193 99.7152 45.1193C98.9396 45.1193 98.2436 44.9432 97.6271 44.5909C97.0107 44.2386 96.5234 43.7287 96.1655 43.0611C95.8075 42.3935 95.6286 41.5852 95.6286 40.6364C95.6286 39.6847 95.8075 38.875 96.1655 38.2074C96.5234 37.5398 97.0107 37.0312 97.6271 36.6818C98.2436 36.3295 98.9396 36.1534 99.7152 36.1534C100.485 36.1534 101.178 36.3295 101.795 36.6818C102.414 37.0312 102.903 37.5398 103.261 38.2074C103.621 38.875 103.802 39.6847 103.802 40.6364ZM101.931 40.6364C101.931 40.0199 101.839 39.5 101.654 39.0767C101.472 38.6534 101.215 38.3324 100.883 38.1136C100.55 37.8949 100.161 37.7855 99.7152 37.7855C99.2692 37.7855 98.88 37.8949 98.5476 38.1136C98.2152 38.3324 97.9567 38.6534 97.772 39.0767C97.5902 39.5 97.4993 40.0199 97.4993 40.6364C97.4993 41.2528 97.5902 41.7727 97.772 42.196C97.9567 42.6193 98.2152 42.9403 98.5476 43.1591C98.88 43.3778 99.2692 43.4872 99.7152 43.4872C100.161 43.4872 100.55 43.3778 100.883 43.1591C101.215 42.9403 101.472 42.6193 101.654 42.196C101.839 41.7727 101.931 41.2528 101.931 40.6364ZM113.189 40.6364C113.189 41.5881 113.008 42.3977 112.647 43.0653C112.289 43.733 111.801 44.2429 111.181 44.5952C110.565 44.9446 109.872 45.1193 109.102 45.1193C108.326 45.1193 107.63 44.9432 107.014 44.5909C106.397 44.2386 105.91 43.7287 105.552 43.0611C105.194 42.3935 105.015 41.5852 105.015 40.6364C105.015 39.6847 105.194 38.875 105.552 38.2074C105.91 37.5398 106.397 37.0312 107.014 36.6818C107.63 36.3295 108.326 36.1534 109.102 36.1534C109.872 36.1534 110.565 36.3295 111.181 36.6818C111.801 37.0312 112.289 37.5398 112.647 38.2074C113.008 38.875 113.189 39.6847 113.189 40.6364ZM111.318 40.6364C111.318 40.0199 111.225 39.5 111.041 39.0767C110.859 38.6534 110.602 38.3324 110.27 38.1136C109.937 37.8949 109.548 37.7855 109.102 37.7855C108.656 37.7855 108.267 37.8949 107.934 38.1136C107.602 38.3324 107.343 38.6534 107.159 39.0767C106.977 39.5 106.886 40.0199 106.886 40.6364C106.886 41.2528 106.977 41.7727 107.159 42.196C107.343 42.6193 107.602 42.9403 107.934 43.1591C108.267 43.3778 108.656 43.4872 109.102 43.4872C109.548 43.4872 109.937 43.3778 110.27 43.1591C110.602 42.9403 110.859 42.6193 111.041 42.196C111.225 41.7727 111.318 41.2528 111.318 40.6364ZM114.555 45V36.2727H116.401V43.4787H120.142V45H114.555ZM129.928 39.0938C129.869 38.8864 129.785 38.7031 129.677 38.544C129.569 38.3821 129.437 38.2457 129.281 38.1349C129.127 38.0213 128.951 37.9347 128.752 37.875C128.556 37.8153 128.339 37.7855 128.1 37.7855C127.654 37.7855 127.262 37.8963 126.924 38.1179C126.589 38.3395 126.327 38.6619 126.14 39.0852C125.952 39.5057 125.859 40.0199 125.859 40.6278C125.859 41.2358 125.951 41.7528 126.136 42.179C126.32 42.6051 126.582 42.9304 126.92 43.1548C127.258 43.3764 127.657 43.4872 128.117 43.4872C128.535 43.4872 128.891 43.4134 129.187 43.2656C129.485 43.1151 129.712 42.9034 129.869 42.6307C130.028 42.358 130.107 42.0355 130.107 41.6634L130.482 41.7188H128.232V40.3295H131.884V41.429C131.884 42.196 131.722 42.8551 131.398 43.4062C131.075 43.9545 130.629 44.3778 130.06 44.6761C129.492 44.9716 128.842 45.1193 128.109 45.1193C127.29 45.1193 126.572 44.9389 125.952 44.5781C125.333 44.2145 124.85 43.6989 124.504 43.0312C124.16 42.3608 123.988 41.5653 123.988 40.6449C123.988 39.9375 124.09 39.3068 124.295 38.7528C124.502 38.196 124.792 37.7244 125.164 37.3381C125.536 36.9517 125.969 36.6577 126.464 36.456C126.958 36.2543 127.494 36.1534 128.07 36.1534C128.565 36.1534 129.025 36.2259 129.451 36.3707C129.877 36.5128 130.255 36.7145 130.585 36.9759C130.917 37.2372 131.188 37.5483 131.398 37.9091C131.609 38.267 131.744 38.6619 131.803 39.0938H129.928ZM134.505 45H132.528L135.54 36.2727H137.918L140.927 45H138.95L136.763 38.267H136.695L134.505 45ZM134.381 41.5696H139.052V43.0099H134.381V41.5696ZM141.977 36.2727H144.253L146.656 42.1364H146.759L149.162 36.2727H151.438V45H149.648V39.3196H149.575L147.317 44.9574H146.098L143.839 39.2983H143.767V45H141.977V36.2727ZM152.958 45V36.2727H158.838V37.794H154.803V39.8736H158.536V41.3949H154.803V43.4787H158.855V45H152.958ZM165.04 38.7827C165.006 38.4389 164.859 38.1719 164.601 37.9815C164.342 37.7912 163.991 37.696 163.548 37.696C163.247 37.696 162.993 37.7386 162.786 37.8239C162.578 37.9062 162.419 38.0213 162.308 38.169C162.2 38.3168 162.146 38.4844 162.146 38.6719C162.141 38.8281 162.173 38.9645 162.244 39.081C162.318 39.1974 162.419 39.2983 162.547 39.3835C162.675 39.4659 162.822 39.5384 162.99 39.6009C163.158 39.6605 163.337 39.7116 163.527 39.7543L164.311 39.9418C164.692 40.027 165.041 40.1406 165.359 40.2827C165.678 40.4247 165.953 40.5994 166.186 40.8068C166.419 41.0142 166.599 41.2585 166.727 41.5398C166.858 41.821 166.925 42.1435 166.928 42.5071C166.925 43.0412 166.788 43.5043 166.518 43.8963C166.251 44.2855 165.865 44.5881 165.359 44.804C164.857 45.017 164.25 45.1236 163.54 45.1236C162.835 45.1236 162.222 45.0156 161.699 44.7997C161.179 44.5838 160.773 44.2642 160.48 43.8409C160.19 43.4148 160.038 42.8878 160.024 42.2599H161.81C161.83 42.5526 161.913 42.7969 162.061 42.9929C162.212 43.1861 162.412 43.3324 162.662 43.4318C162.915 43.5284 163.2 43.5767 163.518 43.5767C163.831 43.5767 164.102 43.5312 164.332 43.4403C164.565 43.3494 164.746 43.223 164.874 43.0611C165.001 42.8991 165.065 42.7131 165.065 42.5028C165.065 42.3068 165.007 42.142 164.891 42.0085C164.777 41.875 164.609 41.7614 164.388 41.6676C164.169 41.5739 163.901 41.4886 163.582 41.4119L162.632 41.1733C161.896 40.9943 161.315 40.7145 160.889 40.3338C160.463 39.9531 160.251 39.4403 160.254 38.7955C160.251 38.267 160.392 37.8054 160.676 37.4105C160.963 37.0156 161.357 36.7074 161.857 36.4858C162.357 36.2642 162.925 36.1534 163.561 36.1534C164.209 36.1534 164.774 36.2642 165.257 36.4858C165.743 36.7074 166.121 37.0156 166.391 37.4105C166.661 37.8054 166.8 38.2628 166.808 38.7827H165.04Z" fill="#D1F2E9"/>
<path d="M96.3047 11.5391H99.9844V22.8594C99.9844 24.1328 99.6836 25.25 99.082 26.2109C98.4805 27.1641 97.6367 27.9062 96.5508 28.4375C95.4648 28.9688 94.1992 29.2344 92.7539 29.2344C91.3008 29.2344 90.0312 28.9688 88.9453 28.4375C87.8672 27.9062 87.0273 27.1641 86.4258 26.2109C85.8242 25.25 85.5234 24.1328 85.5234 22.8594V11.5391H89.2031V22.5547C89.2031 23.5547 89.5273 24.3789 90.1758 25.0273C90.8242 25.668 91.6836 25.9883 92.7539 25.9883C93.8242 25.9883 94.6836 25.668 95.332 25.0273C95.9805 24.3789 96.3047 23.5547 96.3047 22.5547V11.5391ZM117.633 11.5391V29H114.434L106.852 18.0195H106.711V29H103.031V11.5391H106.266L113.801 22.5195H113.953V11.5391H117.633ZM120.68 29V11.5391H127.664C129.586 11.5391 131.031 11.9609 132 12.8047C132.969 13.6406 133.453 14.7109 133.453 16.0156C133.453 17.0391 133.152 17.8711 132.551 18.5117C131.957 19.1445 131.207 19.5625 130.301 19.7656V19.9414C130.965 19.9727 131.586 20.1602 132.164 20.5039C132.75 20.8477 133.223 21.332 133.582 21.957C133.949 22.5742 134.133 23.3125 134.133 24.1719C134.133 25.0938 133.906 25.9219 133.453 26.6562C133 27.3828 132.328 27.957 131.438 28.3789C130.547 28.793 129.445 29 128.133 29H120.68ZM127.102 18.8516C127.852 18.8516 128.477 18.6523 128.977 18.2539C129.477 17.8555 129.727 17.3125 129.727 16.625C129.727 16 129.504 15.4961 129.059 15.1133C128.613 14.7227 127.984 14.5273 127.172 14.5273H124.359V18.8516H127.102ZM127.371 25.9883C128.402 25.9883 129.152 25.7891 129.621 25.3906C130.098 24.9922 130.336 24.4648 130.336 23.8086C130.336 23.0898 130.078 22.5 129.562 22.0391C129.047 21.5703 128.348 21.3359 127.465 21.3359H124.359V25.9883H127.371ZM136.547 29V11.5391H140.227V25.9531H147.715V29H136.547ZM158.051 29.2344C156.504 29.2344 155.113 28.8828 153.879 28.1797C152.645 27.4766 151.668 26.457 150.949 25.1211C150.23 23.7852 149.871 22.1719 149.871 20.2812C149.871 18.375 150.23 16.7539 150.949 15.418C151.668 14.082 152.645 13.0625 153.879 12.3594C155.113 11.6562 156.504 11.3047 158.051 11.3047C159.598 11.3047 160.984 11.6562 162.211 12.3594C163.445 13.0625 164.422 14.082 165.141 15.418C165.859 16.7539 166.219 18.375 166.219 20.2812C166.219 22.1875 165.859 23.8086 165.141 25.1445C164.422 26.4727 163.445 27.4883 162.211 28.1914C160.984 28.8867 159.598 29.2344 158.051 29.2344ZM153.609 20.2812C153.609 22.125 154.012 23.5352 154.816 24.5117C155.629 25.4883 156.707 25.9766 158.051 25.9766C159.387 25.9766 160.457 25.4883 161.262 24.5117C162.074 23.5352 162.48 22.125 162.48 20.2812C162.48 18.4297 162.074 17.0156 161.262 16.0391C160.457 15.0547 159.387 14.5625 158.051 14.5625C156.707 14.5625 155.629 15.0547 154.816 16.0391C154.012 17.0156 153.609 18.4297 153.609 20.2812ZM176.777 29.2344C175.223 29.2344 173.832 28.8828 172.605 28.1797C171.379 27.4766 170.41 26.457 169.699 25.1211C168.996 23.7852 168.645 22.1719 168.645 20.2812C168.645 18.375 169 16.7539 169.711 15.418C170.43 14.082 171.402 13.0625 172.629 12.3594C173.863 11.6562 175.246 11.3047 176.777 11.3047C178.129 11.3047 179.344 11.5547 180.422 12.0547C181.508 12.5547 182.395 13.2773 183.082 14.2227C183.77 15.168 184.191 16.3125 184.348 17.6562H180.621C180.48 16.6953 180.07 15.9414 179.391 15.3945C178.711 14.8398 177.867 14.5625 176.859 14.5625C175.516 14.5625 174.434 15.0625 173.613 16.0625C172.793 17.0547 172.383 18.4609 172.383 20.2812C172.383 22.1406 172.793 23.5547 173.613 24.5234C174.441 25.4922 175.52 25.9766 176.848 25.9766C177.824 25.9766 178.652 25.7188 179.332 25.2031C180.02 24.6875 180.449 23.9648 180.621 23.0352H184.348C184.215 24.1055 183.832 25.1133 183.199 26.0586C182.574 27.0039 181.719 27.7695 180.633 28.3555C179.555 28.9414 178.27 29.2344 176.777 29.2344ZM187.008 29V11.5391H190.688V19.2383H190.91L197.203 11.5391H201.621L195.152 19.3555L201.703 29H197.273L192.504 21.8281L190.688 24.043V29H187.008ZM203.578 29V11.5391H215.344V14.5859H207.258V18.6875H214.723V21.6758H207.258V25.9531H215.367V29H203.578ZM224.461 29H218.273V11.5391H224.508C226.266 11.5391 227.777 11.8906 229.043 12.5938C230.309 13.2891 231.281 14.2891 231.961 15.5938C232.648 16.8906 232.992 18.4453 232.992 20.2578C232.992 22.0781 232.648 23.6406 231.961 24.9453C231.281 26.25 230.305 27.2539 229.031 27.957C227.758 28.6523 226.234 29 224.461 29ZM221.953 25.8359H224.297C225.945 25.8359 227.195 25.3945 228.047 24.5117C228.898 23.6289 229.324 22.2109 229.324 20.2578C229.324 18.3203 228.898 16.9102 228.047 16.0273C227.195 15.1445 225.945 14.7031 224.297 14.7031H221.953V25.8359Z" fill="white"/>
</svg>
